<svg id="Capa_1" enable-background="new 0 0 488.624 488.624" height="512" viewBox="0 0 488.624 488.624" width="512" xmlns="http://www.w3.org/2000/svg"><g><path d="m477.962 261.787c6.03-.143 10.802-5.148 10.659-11.178-.395-16.643-.997-33.311-2.618-50.02-12.688-172.268-139.748-145.272-270.119-144.08-75.288-11.385-186.231-11.536-210.886 78.736-1.274 5.328.05 9.73 2.722 12.899-4.987 20.01-5.861 50.224-6.191 57.09-.406 22.308 1.026 44.519 1.435 66.613-3.406 25.576-4.684 51.455.599 77.263 18.822 101.24 139.971 91.876 218.551 83.028 77.937-5.159 179.192 30.719 239.631-35.177 6.843-9.03 27.713-38.888 14.221-46.088-12.427-5.049-15.091 15.894-22.326 22.27-23.439 31.707-66.07 35.295-102.624 34.575-47.433-.553-97.939-9.945-145.242-2.059-64.098 9.912-166.207 22.87-183.173-60.793-8.356-34.84 1.219-71.091-2.85-106.389-1.388-28.509-1.89-57.598 4.659-85.402 4.383-1.296 8.179-4.669 9.7-10.559 7.488-34.055 36.64-54.466 70.171-61.428 36.085-8.1 74.413-5.332 111.407-1.777 65.243-.279 153.738-18.951 209.702 19.122 43.93 36.114 42.847 100.468 41.395 152.694.142 6.031 5.146 10.804 11.177 10.66z" fill="#ffb7bf"/><path d="m338.77 238.544c-4.906-19.458-26.332-26.003-40.31-37.605-28.342-19.107-83.296-58.223-106.552-13.463l.479-.939c-15.299 33.197-22.685 143.789 35.485 134.66 3.977-.506 7.053-2.647 10.33-4.704 7.937-4.052 17.259-7.472 25.621-10.868 27.278-12.168 81.816-28.616 74.947-67.081zm-29.079 7.488c-.134-.025-.082-.666-.258-.249-22.314 26.13-60.488 34.003-84.531 58.745-35.372 8.87-28.852-107.043-6.92-115.528 25.004-1.925 45.508 20.542 64.522 34.524 3.16 2.664 9.664 7.922 12.9 10.498 4.034 4.221 11.771 6.85 14.287 12.01z" fill="#67b0ff"/></g></svg>